<svg width="25" height="28" viewBox="0 0 25 28" fill="none" xmlns="http://www.w3.org/2000/svg">
<path d="M24.5 19.6V1.4C24.5 0.525 23.975 0 23.1 0H5.25C2.275 0 0 2.275 0 5.25V22.75C0 25.725 2.275 28 5.25 28H23.1C23.8 28 24.5 27.475 24.5 26.6V25.725C24.5 25.375 24.325 25.025 23.975 24.675C23.8 23.8 23.8 21.35 23.975 20.65C24.325 20.475 24.5 20.125 24.5 19.6ZM16.4653 7.97453C16.4981 7.90836 16.5616 7.875 16.625 7.875C16.6884 7.875 16.7519 7.90836 16.7847 7.97453L17.3961 9.2132L18.7633 9.41172C18.9093 9.43305 18.9678 9.61242 18.8623 9.71578L17.873 10.6799L18.1065 12.0411C18.1262 12.1565 18.0348 12.25 17.9309 12.25C17.9036 12.25 17.8752 12.2434 17.8478 12.2292L16.625 11.5866L15.4022 12.2292C15.3748 12.2434 15.3464 12.25 15.3191 12.25C15.2152 12.25 15.1238 12.1565 15.1435 12.0411L15.377 10.6799L14.3877 9.71578C14.2816 9.61242 14.3402 9.43305 14.4867 9.41172L15.8534 9.2132L16.4653 7.97453ZM13.2995 4.20055C14.047 4.20055 14.7902 4.33672 15.5077 4.60578C15.562 4.60582 15.6155 4.61776 15.6646 4.64077C15.7138 4.66378 15.7572 4.69729 15.792 4.73893C15.8267 4.78057 15.8519 4.82934 15.8657 4.88178C15.8796 4.93422 15.8817 4.98906 15.872 5.04242C15.8624 5.09578 15.8411 5.14637 15.8097 5.19061C15.7783 5.23485 15.7376 5.27166 15.6905 5.29845C15.6433 5.32524 15.5908 5.34135 15.5368 5.34564C15.4827 5.34993 15.4284 5.34229 15.3776 5.32328C15.3409 5.32328 15.2086 5.3118 15.1517 5.3118C12.291 5.3118 9.96406 7.63875 9.96406 10.4995C9.96406 13.3596 12.291 15.6871 15.1517 15.6871C15.208 15.6871 15.342 15.6756 15.3776 15.6756C15.5925 15.6756 15.7495 15.8473 15.7495 16.0464C15.7495 16.2094 15.6434 16.3477 15.4968 16.3975C14.782 16.6638 14.0427 16.7989 13.2989 16.7989C9.8257 16.7995 7 13.9732 7 10.5C7 7.02625 9.8257 4.20055 13.2995 4.20055ZM20.825 24.5H5.25C4.2 24.5 3.5 23.8 3.5 22.75C3.5 21.7 4.375 21 5.25 21H20.825V24.5Z" fill="#E2BE7F"/>
</svg>
