<svg width="31" height="32" viewBox="0 0 31 32" fill="none" xmlns="http://www.w3.org/2000/svg">
<path d="M10.0104 2.6665V6.6665H9.04169C8.70585 6.6665 8.38294 6.67984 8.07294 6.73317V2.6665C8.07294 2.11984 8.5121 1.6665 9.04169 1.6665C9.57127 1.6665 10.0104 2.11984 10.0104 2.6665Z" fill="#202020"/>
<path d="M21.9583 6.6665H9.04165C8.70581 6.6665 8.3829 6.67984 8.0729 6.73317C4.7404 7.13317 2.58331 9.67984 2.58331 13.3332V22.6665C2.58331 26.6665 5.16665 29.3332 9.04165 29.3332H21.9583C25.8333 29.3332 28.4166 26.6665 28.4166 22.6665V13.3332C28.4166 9.33317 25.8333 6.6665 21.9583 6.6665ZM10.1783 21.3332C8.39581 21.3332 6.94915 19.8398 6.94915 17.9998C6.94915 16.1598 8.39581 14.6665 10.1783 14.6665C11.9608 14.6665 13.4075 16.1598 13.4075 17.9998C13.4075 19.8398 11.9608 21.3332 10.1783 21.3332ZM18.5741 21.6665H17.9283C17.3987 21.6665 16.9596 21.2132 16.9596 20.6665C16.9596 20.1198 17.3987 19.6665 17.9283 19.6665H18.5741C19.1037 19.6665 19.5429 20.1198 19.5429 20.6665C19.5429 21.2132 19.1037 21.6665 18.5741 21.6665ZM23.095 21.6665H22.4491C21.9196 21.6665 21.4804 21.2132 21.4804 20.6665C21.4804 20.1198 21.9196 19.6665 22.4491 19.6665H23.095C23.6246 19.6665 24.0637 20.1198 24.0637 20.6665C24.0637 21.2132 23.6246 21.6665 23.095 21.6665ZM23.095 16.3332H17.9283C17.3987 16.3332 16.9596 15.8798 16.9596 15.3332C16.9596 14.7865 17.3987 14.3332 17.9283 14.3332H23.095C23.6246 14.3332 24.0637 14.7865 24.0637 15.3332C24.0637 15.8798 23.6246 16.3332 23.095 16.3332Z" fill="#202020"/>
</svg>
