<svg width="32" height="32" viewBox="0 0 32 32" fill="none" xmlns="http://www.w3.org/2000/svg">
<path d="M2.37588 15.5543C2.10013 15.3953 1.74744 15.4896 1.58838 15.7653C1.16038 16.5067 0.812439 17.2358 0.554126 17.9324C0.443376 18.231 0.595626 18.5627 0.894189 18.6733C0.960314 18.698 1.02794 18.7095 1.0945 18.7095C1.32869 18.7095 1.549 18.5658 1.63525 18.3333C1.871 17.6972 2.19125 17.0272 2.58688 16.3418C2.74606 16.0661 2.65163 15.7135 2.37588 15.5543Z" fill="#202020"/>
<path d="M20.2334 11.1727C19.991 10.9662 19.6274 10.9957 19.4207 11.2381C18.9492 11.7925 18.5014 12.4389 18.0518 13.2144C17.8922 13.4899 17.986 13.8426 18.2615 14.0023C18.3526 14.055 18.452 14.0801 18.5501 14.0801C18.749 14.0801 18.9425 13.9771 19.0495 13.7926C19.4639 13.0776 19.8726 12.4864 20.299 11.9854C20.5054 11.7429 20.4759 11.379 20.2334 11.1727Z" fill="#202020"/>
<path d="M21.1665 3.3003C21.1123 2.98643 20.8137 2.77587 20.5003 2.83037C19.7365 2.96224 18.9612 3.13593 18.1962 3.34649C17.8892 3.43093 17.7089 3.74824 17.7934 4.0553C17.8638 4.31105 18.0959 4.47899 18.349 4.47899C18.3995 4.47899 18.451 4.4723 18.5022 4.45818C19.2312 4.25755 19.9695 4.09218 20.6965 3.96655C21.0103 3.9123 21.2207 3.61405 21.1665 3.3003Z" fill="#202020"/>
<path d="M17.742 15.0303C17.4525 14.898 17.1103 15.0255 16.978 15.3152C16.6808 15.966 16.3763 16.6913 16.0733 17.4707C15.9578 17.7676 16.1048 18.1017 16.4015 18.217C16.4702 18.2437 16.5409 18.2564 16.6104 18.2564C16.8412 18.2564 17.0591 18.1168 17.1478 17.8888C17.4431 17.1298 17.7388 16.4251 18.0269 15.7943C18.1592 15.5046 18.0316 15.1625 17.742 15.0303Z" fill="#202020"/>
<path d="M14.5172 23.6632C14.2272 23.5332 13.8857 23.6633 13.7555 23.954C13.4313 24.6782 13.0749 25.3266 12.696 25.881C12.5164 26.144 12.5838 26.5027 12.8468 26.6824C12.9463 26.7504 13.0595 26.7829 13.1715 26.7829C13.3557 26.7829 13.5365 26.695 13.6481 26.5316C14.0656 25.9206 14.4558 25.2118 14.808 24.425C14.9381 24.1343 14.8079 23.7932 14.5172 23.6632Z" fill="#202020"/>
<path d="M12.4928 6.30295C12.3335 6.02714 11.9809 5.93283 11.7052 6.09201C11.0334 6.48008 10.3643 6.90176 9.71651 7.34533C9.4537 7.5252 9.38657 7.88401 9.56645 8.1467C9.6782 8.30983 9.85895 8.39758 10.0428 8.39758C10.1549 8.39758 10.2684 8.36483 10.3679 8.29664C10.9916 7.86964 11.6355 7.46383 12.2819 7.09045C12.5578 6.93126 12.652 6.57864 12.4928 6.30295Z" fill="#202020"/>
<path d="M16.0063 19.2996C15.7055 19.1951 15.377 19.3546 15.2728 19.6555C15.0349 20.3413 14.789 21.0821 14.542 21.857C14.4452 22.1604 14.6127 22.4847 14.916 22.5814C14.9742 22.6 15.0333 22.6088 15.0913 22.6088C15.3355 22.6088 15.5623 22.4525 15.6404 22.2074C15.8848 21.4416 16.1275 20.7101 16.3622 20.0332C16.4665 19.7323 16.3072 19.4039 16.0063 19.2996Z" fill="#202020"/>
<path d="M31.5348 5.85207C31.4053 5.561 31.0713 5.43038 30.7808 5.55963C30.4899 5.68913 30.3484 6.02988 30.4779 6.32075C30.7297 6.88694 30.847 7.55682 30.847 8.31194V8.33369C30.847 8.65207 31.1051 8.91019 31.4235 8.91019C31.7419 8.91019 32 8.65207 32 8.33369V8.31194C32 7.39432 31.8527 6.56669 31.5348 5.85207Z" fill="#202020"/>
<path d="M31.2856 10.0553C30.9761 9.98064 30.6646 10.1709 30.5898 10.4802C30.4288 11.146 30.1987 11.8586 29.9056 12.5981C29.7884 12.8941 29.9332 13.2291 30.2292 13.3465C30.2989 13.374 30.3708 13.3871 30.4414 13.3871C30.6709 13.3871 30.8879 13.2491 30.9775 13.0229C31.2903 12.2335 31.5369 11.4691 31.7104 10.7511C31.7854 10.4416 31.5951 10.1301 31.2856 10.0553Z" fill="#202020"/>
<path d="M24.3368 9.34091C24.302 9.02441 24.016 8.79716 23.7007 8.83097C22.8183 8.92809 22.0332 9.18453 21.3 9.61491C21.0254 9.77616 20.9335 10.1294 21.0948 10.404C21.2022 10.5868 21.3948 10.6887 21.5925 10.6887C21.6916 10.6887 21.7921 10.6631 21.8839 10.6093C22.474 10.2629 23.1094 10.0561 23.8268 9.97716C24.1433 9.94228 24.3717 9.65747 24.3368 9.34091Z" fill="#202020"/>
<path d="M29.4635 16.153C29.6243 15.8707 29.8047 15.5418 29.9945 15.1739C30.1404 14.8909 30.0293 14.5432 29.7463 14.3972C29.464 14.2515 29.1158 14.3621 28.9698 14.6453C28.6256 15.3128 28.3093 15.8527 28.1009 16.1936C23.1463 19.7826 24.8534 23.3573 24.9308 23.5124C25.0725 23.7955 25.4144 23.9092 25.6987 23.7701C25.983 23.6311 26.101 23.2865 25.9643 23.0011C25.9091 22.8858 24.75 20.3375 28.3048 17.4877C28.3127 17.4879 28.3208 17.4894 28.3286 17.4894C28.4748 17.4894 28.6185 17.4329 28.7274 17.3284C29.1266 18.3667 29.675 20.4809 28.9278 23.0962C28.8402 23.4024 29.0176 23.7215 29.3237 23.8089C29.3766 23.8241 29.4298 23.8312 29.4823 23.8312C29.7331 23.8312 29.9639 23.6661 30.0363 23.4129C31.1296 19.587 29.7851 16.7511 29.4635 16.153Z" fill="#202020"/>
<path d="M29.8984 3.86549C29.2718 3.42624 28.5017 3.08881 27.6096 2.86249C27.3009 2.78437 26.9873 2.97118 26.9091 3.27962C26.8308 3.58824 27.0174 3.90187 27.3261 3.98018C28.0822 4.17193 28.7251 4.45099 29.2367 4.80962C29.3375 4.88018 29.4527 4.91412 29.5671 4.91412C29.7487 4.91412 29.9276 4.82849 30.0397 4.66843C30.2224 4.40774 30.1591 4.04818 29.8984 3.86549Z" fill="#202020"/>
<path d="M1.50925 22.4345C1.38456 22.087 1.28769 21.743 1.22144 21.4121C1.17612 21.1849 1.15306 20.9386 1.15306 20.681C1.15319 20.5907 1.156 20.4987 1.16138 20.4057C1.17981 20.0878 0.937125 19.8151 0.619313 19.7967C0.29925 19.7757 0.02875 20.0209 0.01025 20.3387C0.003625 20.4533 0.000125 20.5679 0 20.6802C0 21.0144 0.0305625 21.3368 0.0909375 21.6383C0.168187 22.0245 0.28025 22.4235 0.424125 22.8241C0.508563 23.0594 0.73025 23.206 0.96675 23.206C1.03138 23.206 1.09719 23.195 1.16156 23.1719C1.46112 23.0644 1.61681 22.7342 1.50925 22.4345Z" fill="#202020"/>
<path d="M16.6964 4.41253C16.5846 4.11453 16.2522 3.96359 15.954 4.07553C15.2297 4.34753 14.5007 4.65759 13.7872 4.99696C13.4996 5.13378 13.3773 5.47772 13.5141 5.76528C13.6129 5.9729 13.8197 6.09428 14.0352 6.09428C14.118 6.09428 14.2024 6.07628 14.2824 6.03828C14.9667 5.71278 15.6655 5.41559 16.3594 5.15497C16.6575 5.04297 16.8084 4.71059 16.6964 4.41253Z" fill="#202020"/>
<path d="M5.21601 11.9238C4.97982 11.7104 4.61545 11.7284 4.40164 11.9647C3.86114 12.5623 3.35582 13.1751 2.8997 13.7863C2.70926 14.0415 2.76176 14.4028 3.01695 14.5932C3.12051 14.6704 3.24145 14.7077 3.36139 14.7077C3.53707 14.7077 3.71057 14.6277 3.82389 14.476C4.25839 13.8937 4.74045 13.309 5.25689 12.7381C5.47032 12.502 5.45201 12.1374 5.21601 11.9238Z" fill="#202020"/>
<path d="M28.4622 9.43347C27.577 9.19247 26.8202 9.0251 26.1484 8.92154C25.8335 8.87229 25.5393 9.08879 25.4908 9.40347C25.4423 9.71822 25.658 10.0126 25.9728 10.061C26.6012 10.158 27.3165 10.3165 28.1593 10.5459C28.21 10.5597 28.261 10.5663 28.3111 10.5663C28.5648 10.5663 28.7972 10.3977 28.867 10.1412C28.9506 9.83391 28.7695 9.51704 28.4622 9.43347Z" fill="#202020"/>
<path d="M12.0823 27.5496C11.8835 27.3013 11.5208 27.261 11.2718 27.4598C10.7053 27.9133 10.0947 28.2166 9.45725 28.3612C9.14675 28.4317 8.95207 28.7405 9.02244 29.051C9.08325 29.3186 9.321 29.5001 9.58419 29.5001C9.62644 29.5001 9.66932 29.4955 9.71225 29.4858C10.5213 29.3022 11.2884 28.9235 11.9924 28.36C12.241 28.161 12.2811 27.7983 12.0823 27.5496Z" fill="#202020"/>
<path d="M25.2197 2.52324C24.4767 2.48468 23.6507 2.49481 22.848 2.54837C22.5302 2.56956 22.29 2.84431 22.3111 3.16199C22.3314 3.46662 22.5849 3.70012 22.8858 3.70012C22.8986 3.70012 22.9117 3.69968 22.9246 3.69887C23.6825 3.64818 24.4623 3.63856 25.16 3.67474C25.4799 3.69181 25.7492 3.44674 25.7657 3.12887C25.7822 2.81081 25.5377 2.53968 25.2197 2.52324Z" fill="#202020"/>
<path d="M8.6392 8.83447C8.44001 8.58609 8.0772 8.54622 7.82876 8.74553C7.21551 9.2374 6.61789 9.75572 6.0522 10.286C5.81995 10.5037 5.80826 10.8686 6.02601 11.1008C6.13945 11.2219 6.29289 11.283 6.4467 11.283C6.58801 11.283 6.72957 11.2314 6.84095 11.1271C7.38495 10.617 7.96007 10.1183 8.55026 9.6449C8.7987 9.44565 8.83851 9.08278 8.6392 8.83447Z" fill="#202020"/>
<path d="M7.4382 28.3235C6.79957 28.1675 6.15101 27.8814 5.51032 27.4728C5.24189 27.3015 4.88526 27.3807 4.7142 27.649C4.54307 27.9174 4.62189 28.2738 4.89045 28.4451C5.63795 28.9217 6.40307 29.2577 7.16457 29.4436C7.21064 29.4549 7.25664 29.4602 7.30182 29.4602C7.56139 29.4602 7.79714 29.2837 7.86145 29.0204C7.93701 28.711 7.74739 28.3989 7.4382 28.3235Z" fill="#202020"/>
<path d="M3.8372 26.094C3.33132 25.5729 2.87432 24.9957 2.47895 24.3789C2.30695 24.1106 1.95045 24.0327 1.68245 24.2045C1.41432 24.3764 1.33632 24.733 1.50807 25.001C1.94513 25.6828 2.45038 26.3208 3.00988 26.8972C3.12288 27.0136 3.2732 27.0721 3.42357 27.0721C3.56826 27.0721 3.71307 27.0179 3.82513 26.9092C4.05351 26.6874 4.05901 26.3225 3.8372 26.094Z" fill="#202020"/>
</svg>
